<?xml version="1.0" encoding="utf-8"?>
<!-- Generator: Adobe Illustrator 17.0.0, SVG Export Plug-In . SVG Version: 6.00 Build 0)  -->
<!DOCTYPE svg PUBLIC "-//W3C//DTD SVG 1.1//EN" "http://www.w3.org/Graphics/SVG/1.1/DTD/svg11.dtd">
<svg version="1.1" id="Layer_1" xmlns="http://www.w3.org/2000/svg" xmlns:xlink="http://www.w3.org/1999/xlink" x="0px" y="0px"
	 width="198.067px" height="115.087px" viewBox="15.468 41.201 198.067 115.087"
	 enable-background="new 15.468 41.201 198.067 115.087" xml:space="preserve">
<g>
	<g>
		<path d="M92.127,115.713c0,0,3.284,4.277,3.905,5.096c1.191,1.569,2.049,2.949,3.972,2.949v0.416l-6.449,0.006v-0.408
			c0.484-0.006,1.216-0.002,1.216-0.002l-4.592-5.975l-5.076,5.953c0,0,0.619,0,1.066,0l0.002,0.432h-4.118v-0.41
			c1.17,0,1.755-0.369,2.317-0.967c0.488-0.516,0.494-0.55,1.115-1.22l4.006-4.659c0,0-2.637-3.511-3.287-4.354
			c-1.114-1.444-2.08-3.25-4.164-3.137l-0.004-0.402l6.477-0.01v0.404c-0.551,0-1.229,0.01-1.229,0.01l4.143,5.428l4.701-5.428
			c-0.191,0-0.875-0.011-1.18-0.011v-0.415h4.131v0.407c-1.137,0.05-1.711,0.166-3.174,1.931
			C95.382,111.984,92.127,115.713,92.127,115.713z"/>
		<path d="M53.723,120.15l0.384,0.158l-1.437,3.866H40.307v-0.418c0,0,0.992-0.002,1.244-0.002V111.06
			c0-1.381-0.69-1.646-1.821-1.625l0.004-0.426h5.943v0.438c-0.212,0-0.591,0-1.216,0l0.003,14.311c1.443,0,3.354,0.115,5.995-0.636
			C52.476,122.549,53.284,121.052,53.723,120.15z"/>
		<path d="M154.141,124.176v-0.417c0.394,0,0.904-0.015,1.277-0.015v-12.717c0-0.946-0.453-1.66-1.812-1.603
			c0-0.171,0-0.415,0-0.415h6.904c6.875,0,8.688,3.834,8.688,7.617c0,5.342-4.205,7.547-8.761,7.547L154.141,124.176
			L154.141,124.176z M158.352,122.012c0,1.066,0.41,1.758,1.549,1.758c5.146,0,6.332-3.141,6.332-7.141
			c0-2.988-0.754-7.184-5.862-7.184c-0.57,0-1.55,0-2.035,0C158.334,109.447,158.352,119.941,158.352,122.012z"/>
		<path d="M128.326,109.008l5.045-0.006l9.715,10.66c0,0-0.068-9.948-0.068-10.214h-1.18v-0.439h4.199c0,0,0,0.175,0,0.419
			c-1.57-0.043-1.875,0.605-1.875,1.635c0,0.871,0.012,13.107,0.012,13.107h-0.656l-11.211-12.033l0.068,11.611h1.18v0.434
			l-4.174,0.012c0,0,0-0.189,0-0.428c1.354,0,1.826-0.367,1.826-1.55l-0.014-11.26c-0.562-0.606-1.125-1.578-2.863-1.521
			L128.326,109.008z"/>
		<path d="M193.453,124.176l-4.908-0.001l-5.482-7.063c-0.492,0-0.856,0-1.41,0v6.642c0.677,0,1.267,0.001,1.267,0.001v0.424h-5.998
			c0,0-0.004-0.188-0.004-0.414c1.685,0,1.824-0.879,1.824-1.744v-10.31c0-1.353-0.043-2.308-1.81-2.269
			c0-0.16,0.002-0.414,0.002-0.414h6.256c5.533,0,6.836,1.854,6.836,3.899c0,2.448-2.237,3.478-3.678,3.812
			c0,0,2.678,3.59,4.16,5.398c1.1,1.344,1.891,1.559,2.945,1.631L193.453,124.176L193.453,124.176z M181.65,116.68
			c0.16,0,0.453,0,0.967,0c3.521,0,4.42-2.261,4.42-3.859c0-2.704-1.867-3.379-3.527-3.379c-0.49,0-0.9-0.006-1.873-0.015
			L181.65,116.68z"/>
		<path d="M122.061,123.74c-0.254-0.021-0.528-0.122-0.869-0.452c-0.352-0.34-0.534-0.661-1.188-1.942
			c-0.651-1.279-5.953-12.328-5.953-12.328l-0.642,0.002c0,0-2.653,5.447-4.978,10.062c-0.646,1.279-1.21,2.414-1.61,3.182
			c-0.676,1.297-1.44,1.508-2.276,1.508v0.406h3.991v-0.406c-0.291,0-1.198-0.002-1.198-0.002l2.235-4.598h6.2l2.172,4.588
			c0,0-0.801,0-1.26,0v0.418h5.984v-0.417C122.357,123.754,122.318,123.762,122.061,123.74z M109.938,118.469l2.82-5.701
			l2.688,5.701L109.938,118.469L109.938,118.469z"/>
		<path d="M32.985,123.74c-0.254-0.021-0.529-0.122-0.871-0.452c-0.35-0.34-0.533-0.661-1.188-1.942
			c-0.652-1.279-5.954-12.328-5.954-12.328l-0.64,0.002c0,0-2.653,5.447-4.977,10.062c-0.646,1.279-1.211,2.414-1.611,3.182
			c-0.676,1.297-1.44,1.508-2.276,1.508v0.406h3.991v-0.406c-0.29,0-1.198-0.002-1.198-0.002l2.235-4.598h6.199l2.172,4.588
			c0,0-0.803,0-1.26,0v0.418h5.984v-0.417C33.282,123.754,33.243,123.762,32.985,123.74z M20.864,118.469l2.82-5.701l2.686,5.701
			L20.864,118.469L20.864,118.469z"/>
		<path d="M203.879,109.448v6.811c0,0,3.832,0,4.244,0c1.135,0,1.832-0.286,1.832-1.604h0.434v3.259l-0.42-0.007v-0.949l-6.09-0.001
			v6.794c3.117,0,4.523-0.116,6.291-0.732c1.924-0.67,2.562-1.873,2.947-2.854l0.418,0.146l-1.477,3.867h-12.355v-0.418
			c0,0,0.482,0.012,1.266,0l0.012-12.441c0-0.838-0.039-1.977-1.838-1.879v-0.426h12.92l0.188,3.145h-0.418
			c-0.332-1.234-0.492-2.711-4.019-2.711L203.879,109.448z"/>
		<path d="M65.557,109.448v6.811c0,0,3.833,0,4.243,0c1.137,0,1.834-0.286,1.834-1.604h0.434v3.259l-0.422-0.007v-0.949
			l-6.088-0.001v6.794c3.118,0,4.524-0.116,6.291-0.732c1.924-0.67,2.562-1.873,2.949-2.854l0.416,0.146l-1.475,3.867H61.383v-0.418
			c0,0,0.481,0.012,1.265,0l0.012-12.441c0-0.838-0.039-1.977-1.838-1.879v-0.426H73.74l0.19,3.145h-0.417
			c-0.334-1.234-0.494-2.711-4.02-2.711L65.557,109.448z"/>
	</g>
	<g>
		<path d="M125.607,53.357l-5.195,8.004l1.883-0.123l4.525-6.997l-1.188-0.915l3.349-4.221l-0.041-0.031
			c-0.219,0.003-0.902,0.012-1.896,0.025l-2.627,3.312L125.607,53.357z"/>
		<path d="M121.701,53.357l-5.369,8.272l1.885-0.124l4.697-7.264l-1.189-0.916l3.303-4.197c-0.608,0.01-1.27,0.021-1.959,0.032
			l-2.559,3.253L121.701,53.357z"/>
		<path d="M117.795,53.357l3.271-4.159c-0.646,0.012-1.303,0.024-1.965,0.036l-2.5,3.181L117.795,53.357z"/>
		<path d="M113.872,53.347l-5.727,8.819l1.887-0.124l5.044-7.799l-1.178-0.905l3.194-4.058c-0.672,0.015-1.331,0.031-1.973,0.048
			l-2.431,3.088L113.872,53.347z"/>
		<path d="M110.211,53.357l-5.88,9.06l1.887-0.124l5.189-8.025l-1.189-0.918l3.14-3.973c-0.719,0.02-1.39,0.043-1.992,0.066
			l-2.346,2.972L110.211,53.357z"/>
		<path d="M109.557,49.533c-0.389,0.023-0.71,0.047-0.927,0.072c-0.422,0.049-0.824,0.115-1.219,0.19l-2.067,2.621l1.192,0.94
			L109.557,49.533z"/>
		<path d="M105.219,50.373c-1.071,0.371-2.062,0.842-3.038,1.395l-0.512,0.648l1.193,0.941L105.219,50.373z"/>
		<polygon points="85.944,68.855 86.685,72.902 88.073,72.107 87.226,67.534 		"/>
		<polygon points="83.772,74.57 85.159,73.777 84.517,70.33 83.233,71.654 		"/>
		<path d="M144.178,41.281c-0.326-0.049-0.682-0.08-1.061-0.08c-0.148,0-0.297,0-0.445,0l-0.004,3.986l1.516,1.312L144.178,41.281z"
			/>
		<polygon points="105.211,67.019 96.815,67.585 88.161,76.24 80.845,76.248 82.2,75.47 81.798,73.134 80.498,74.478 80.797,76.248 
			78.789,76.248 78.036,77.515 88.708,77.506 97.396,68.818 105.291,68.285 		"/>
		<polygon points="135.627,48.862 132.176,45.843 131.125,46.922 134.578,49.955 		"/>
		<path d="M133.518,51.058l-3.469-3.035l-1.023,1.051c0,0-0.02,0-0.053,0l3.498,3.072L133.518,51.058z"/>
		<path d="M141.301,41.202c-0.527,0-1.029,0.001-1.502,0.001l-0.002,3.327l1.508-0.013L141.301,41.202z"/>
		<polygon points="139.775,44.541 136.365,41.545 135.316,42.621 138.736,45.623 		"/>
		<polygon points="137.76,46.64 134.328,43.636 133.275,44.718 136.709,47.734 		"/>
		<polygon points="119.008,54.267 117.816,53.349 112.267,61.896 114.154,61.773 		"/>
		<polygon points="126.303,60.976 130.621,54.326 129.43,53.408 124.436,61.099 		"/>
		<polygon points="107.737,54.291 106.547,53.373 100.513,62.667 102.401,62.543 		"/>
		<polygon points="96.688,62.917 98.577,62.794 104.092,54.267 102.901,53.349 		"/>
		<polygon points="100.375,54.291 99.183,53.373 92.844,63.169 94.733,63.021 		"/>
		<polygon points="113.688,71.509 112.7,70.716 107.958,76.236 100.38,76.226 100.38,77.494 104.589,77.5 107.604,87.171 
			100.38,87.177 100.38,88.191 107.962,88.185 114.846,86.507 117.338,88.285 117.926,87.458 115.066,85.42 108.858,86.939 
			105.917,77.502 108.562,77.506 		"/>
		<polygon points="100.3,89.857 100.3,91.711 100.38,91.711 128.648,91.711 128.648,89.857 100.38,89.857 		"/>
		<path d="M87.235,67.523l-0.004,0.004l1.621-0.309l0.734,4.022l1.389-0.796l-0.648-3.51l1.64-0.312l0.531,2.95l1.39-0.795
			l-0.445-2.438h0.002l-0.278-1.463L77.32,67.982v0.229c0.586,0.24,1.396,0.572,1.875,0.771
			C80.601,68.708,87.235,67.523,87.235,67.523z"/>
		<path d="M148.678,44.923c0,0-0.842,0.213-1.621,0.633l-0.004-2.879c-0.262-0.275-0.549-0.529-0.861-0.727
			c-0.146-0.094-0.375-0.205-0.651-0.312v5.993h0.043c0.168,0.043,0.896,0.229,1.772,0.46l-0.178,0.43
			c-1.471,3.528-4.854,11.754-9.02,13.281c-2.277,0.836-4.209,1.424-6.254,2.047c-0.986,0.301-2.043,0.646-3.115,0.987l-0.176,0.056
			l-9.598,11.317h-7.072v1.267h3.421l3.732,10.672h9.553v-1.014h-8.562l-3.381-9.658h2.904l9.742-11.49
			c0.998-0.317,1.994-0.644,2.92-0.926c2.062-0.627,4.012-1.221,6.322-2.068c4.686-1.721,8.09-9.992,9.75-13.986l0.243-0.588
			c0.539,0.143,1.065,0.286,1.502,0.407c0.539,0.479,0.88,0.765,1.043,0.901h0.132c0.235-2.137,0.266-2.283,0.354-3.092
			C149.719,45.45,148.678,44.923,148.678,44.923z"/>
		<path d="M92.558,61.689l-8.498,1.726c-1.072,0.653-2.086,1.272-3.009,1.831v0.211l11.79-2.281L92.558,61.689z"/>
		<path d="M91.952,58.509c-1.102,0.7-1.977,1.264-3.157,1.997v0.179L92.235,60L91.952,58.509z"/>
	</g>
	<g>
		<path d="M187.744,152.002l0.385,0.159l-1.436,3.866H174.33v-0.418c0,0,0.992-0.002,1.244-0.002v-12.69
			c0-1.38-0.691-1.646-1.822-1.624l0.004-0.426h5.943v0.436c-0.211,0-0.59,0-1.217,0l0.004,14.309c1.445,0,3.354,0.113,5.996-0.639
			C186.498,154.4,187.305,152.902,187.744,152.002z"/>
		<path d="M166.871,155.588c0,0.225,0.014,0.438,0.014,0.438h-5.982l0.009-0.424c0,0,0.993-0.004,1.243-0.004l-0.008-12.684
			c0-1.381-0.688-1.646-1.821-1.624l0.004-0.425h5.942v0.436c-0.211,0-0.59,0-1.215,0l0.002,12.651
			C165.059,155.621,166.096,155.588,166.871,155.588z"/>
		<path d="M86.985,155.59c-0.256-0.021-0.53-0.122-0.871-0.453c-0.351-0.339-0.534-0.658-1.188-1.941
			c-0.653-1.279-5.954-12.323-5.954-12.323l-0.641,0.002c0,0-2.653,5.444-4.977,10.06c-0.646,1.279-1.211,2.414-1.611,3.184
			c-0.676,1.294-1.44,1.507-2.276,1.507v0.405h3.992v-0.405c-0.291,0-1.199-0.004-1.199-0.004l2.235-4.597h6.199l2.172,4.59
			c0,0-0.803,0-1.26,0v0.416h5.983v-0.414C87.28,155.605,87.241,155.615,86.985,155.59z M74.862,150.32l2.822-5.697l2.686,5.697
			H74.862z"/>
		<path d="M110,156.027l-4.907-0.002l-5.486-7.062c-0.49,0-0.854,0-1.408,0v6.643c0.675,0,1.267,0,1.267,0v0.424h-6.001
			c0,0-0.002-0.188-0.002-0.412c1.682,0,1.824-0.881,1.824-1.745v-10.31c0-1.351-0.043-2.307-1.809-2.268
			c0-0.158,0.002-0.411,0.002-0.411h6.256c5.533,0,6.836,1.854,6.836,3.897c0,2.445-2.239,3.475-3.676,3.807
			c0,0,2.678,3.592,4.159,5.401c1.101,1.345,1.89,1.556,2.947,1.63v0.408L110,156.027L110,156.027z M98.196,148.532
			c0.162,0,0.455,0,0.968,0c3.522,0,4.42-2.261,4.42-3.859c0-2.702-1.869-3.376-3.529-3.376c-0.489,0-0.899-0.005-1.872-0.015
			L98.196,148.532z"/>
		<path d="M120.697,141.302v6.808c0,0,3.832,0,4.242,0c1.137,0,1.834-0.285,1.834-1.604h0.432v3.256l-0.42-0.006v-0.949
			l-6.088-0.002v6.795c3.115,0,4.523-0.117,6.289-0.731c1.926-0.669,2.562-1.872,2.949-2.854l0.416,0.148l-1.476,3.865h-12.354
			v-0.416c0,0,0.481,0.011,1.266,0l0.012-12.438c0-0.841-0.039-1.978-1.84-1.88v-0.425h12.92l0.189,3.141h-0.416
			c-0.334-1.231-0.494-2.708-4.021-2.708L120.697,141.302z"/>
		<path d="M52.181,156.066l-6.641-12.207l0.072,11.746c0.24,0,0.504,0,1.172,0c0,0.108,0,0.438,0,0.438h-4.198
			c0,0-0.004-0.256-0.004-0.422c0.489,0,1.853,0.091,1.853-1.479c0-1.619,0-11.187,0-11.187c0-1.261-0.625-1.697-1.808-1.665
			l-0.009-0.426h4.541l6.225,11.568l5.714-11.568h3.948l0.011,0.436c-0.297,0-0.776-0.011-1.305-0.011v12.524
			c0,0.934,0.146,1.812,1.846,1.812c0,0.309,0,0.415,0,0.415l-5.976-0.011l0.007-0.43c0,0,0.916,0,1.224,0v-11.756l-6.086,12.217
			h-0.586C52.181,156.06,52.181,156.066,52.181,156.066z"/>
		<path d="M149.664,141.301l-0.004-0.433h4.201v0.422c-0.928-0.017-1.93,0.14-1.93,1.667c0,1.75,0,6.613,0,7.752
			c0,2.059-0.285,3.027-1.681,4.236c-1.489,1.293-3.803,1.342-4.711,1.342c-0.711,0-3.551,0.072-5.22-1.326
			c-1.325-1.111-1.725-2.209-1.725-4.266c0-1.284,0.004-1.284-0.016-7.697c0-1.766-1.279-1.708-1.932-1.708v-0.42h5.983v0.412
			l-1.228-0.001v9.052c0,4.754,2.49,5.272,4.125,5.272c2.033,0,3.16-0.508,4.011-1.184c1.03-0.818,1.323-2.052,1.323-3.574
			l-0.038-9.554L149.664,141.301z"/>
	</g>
</g>
</svg>
